# File created by Blade
# Date/Time:  Thu Jan 22 16:05:08 2015
#---------------------------------------------------------
:version 1.10
:name HOM
:units
  mass 1.0
  length 1.000000
  angle deg
:documentation
     Acclaim Skeleton File
:root
   axis xyz
   order TX TY TZ RX RY RZ
   position 0.000000 0.000000 0.000000
   orientation 0 0 0
:bonedata
   begin
      id 1
      name RightUpLeg_dum
      direction -1.000000 0.000000 0.000000
      length 3.766986
      axis 0.0 0.0 0.0 xyz
   end
   begin
      id 2
      name LeftUpLeg_dum
      direction 1.000000 0.000000 0.000000
      length 3.766986
      axis 0.0 0.0 0.0 xyz
   end
   begin
      id 3
      name Spine_dum
      direction 0.000000 1.000000 0.000000
      length 7.779697
      axis 0.0 0.0 0.0 xyz
   end
   begin
      id 4
      name RightUpLeg
      direction 0.000000 -1.000000 0.000000
      length 18.017682
      axis 0.0 0.0 0.0 xyz
      dof rx ry rz
   end
   begin
      id 5
      name RightLeg
      direction 0.000000 -1.000000 0.000000
      length 16.881075
      axis 0.0 0.0 0.0 xyz
      dof rx ry rz
   end
   begin
      id 6
      name RightFoot
      direction 0.000000 -0.258819 0.965926
      length 5.770812
      axis 15.0 0.0 0.0 xyz
      dof rx ry rz
   end
   begin
      id 7
      name RightToeBase
      direction 0.000000 0.000000 1.000000
      length 2.952750
      axis 0.0 0.0 0.0 xyz
      dof rx ry rz
   end
   begin
      id 8
      name LeftUpLeg
      direction 0.000000 -1.000000 0.000000
      length 18.017682
      axis 0.0 0.0 0.0 xyz
      dof rx ry rz
   end
   begin
      id 9
      name LeftLeg
      direction 0.000000 -1.000000 0.000000
      length 16.881075
      axis 0.0 0.0 0.0 xyz
      dof rx ry rz
   end
   begin
      id 10
      name LeftFoot
      direction 0.000000 -0.258819 0.965926
      length 5.770812
      axis 15.0 0.0 0.0 xyz
      dof rx ry rz
   end
   begin
      id 11
      name LeftToeBase
      direction 0.000000 0.000000 1.000000
      length 2.952750
      axis 0.0 0.0 0.0 xyz
      dof rx ry rz
   end
   begin
      id 12
      name Spine
      direction 0.000000 1.000000 0.000000
      length 0.000000
      axis 0.0 0.0 0.0 xyz
      dof rx ry rz
   end
   begin
      id 13
      name Spine_dum1
      direction 0.000000 1.000000 0.000000
      length 10.941760
      axis 0.0 0.0 0.0 xyz
   end
   begin
      id 14
      name Spine_dum2
      direction 0.000000 1.000000 0.000000
      length 10.941760
      axis 0.0 0.0 0.0 xyz
   end
   begin
      id 15
      name Spine_dum3
      direction 0.000000 1.000000 0.000000
      length 16.646042
      axis 0.0 0.0 0.0 xyz
   end
   begin
      id 16
      name RightShoulder
      direction -1.000000 0.000000 0.000000
      length 7.708937
      axis 0.0 0.0 90.0 xyz
      dof rx ry rz
   end
   begin
      id 17
      name RightArm
      direction -1.000000 0.000000 0.000000
      length 11.521345
      axis 0.0 0.0 90.0 xyz
      dof rx ry rz
   end
   begin
      id 18
      name RightForeArm
      direction -1.000000 0.000000 0.000000
      length 10.175898
      axis 0.0 0.0 90.0 xyz
      dof ry rz rx
   end
   begin
      id 19
      name RightHand
      direction -1.000000 0.000000 0.000000
      length 0.000000
      axis 0.0 0.0 90.0 xyz
      dof rx ry rz
   end
   begin
      id 20
      name RightHand_dum1
      direction -1.000000 0.000000 0.000000
      length 3.937000
      axis 0.0 0.0 90.0 xyz
   end
   begin
      id 21
      name RightHand_dum2
      direction 0.000000 0.000000 0.000000
      length 0.000000
      axis 0.0 0.0 90.0 xyz
   end
   begin
      id 22
      name RightHandThumb1
      direction 0.000000 0.000000 1.000000
      length 3.937000
      axis 0.0 0.0 90.0 xyz
      dof rx rz ry
   end
   begin
      id 23
      name LeftShoulder
      direction 1.000000 0.000000 0.000000
      length 7.708937
      axis 0.0 0.0 -90.0 xyz
      dof rx ry rz
   end
   begin
      id 24
      name LeftArm
      direction 1.000000 0.000000 0.000000
      length 11.521345
      axis 0.0 0.0 -90.0 xyz
      dof rx ry rz
   end
   begin
      id 25
      name LeftForeArm
      direction 1.000000 0.000000 0.000000
      length 10.175898
      axis 0.0 0.0 -90.0 xyz
      dof ry rz rx
   end
   begin
      id 26
      name LeftHand
      direction 1.000000 0.000000 0.000000
      length 0.000000
      axis 0.0 0.0 -90.0 xyz
      dof rx ry rz
   end
   begin
      id 27
      name LeftHand_dum1
      direction 1.000000 0.000000 0.000000
      length 3.937000
      axis 0.0 0.0 -90.0 xyz
   end
   begin
      id 28
      name LeftHand_dum2
      direction 0.000000 0.000000 0.000000
      length 0.000000
      axis 0.0 0.0 -90.0 xyz
   end
   begin
      id 29
      name LeftHandThumb1
      direction 0.000000 0.000000 1.000000
      length 3.937000
      axis 0.0 0.0 -90.0 xyz
      dof rx rz ry
   end
   begin
      id 30
      name Head
      direction 0.000000 1.000000 0.000000
      length 4.527550
      axis 0.0 0.0 0.0 xyz
      dof rx ry rz
   end
:hierarchy
   begin
      root RightUpLeg_dum LeftUpLeg_dum Spine_dum
      RightUpLeg_dum RightUpLeg
      LeftUpLeg_dum LeftUpLeg
      Spine_dum Spine
      RightUpLeg RightLeg
      RightLeg RightFoot
      RightFoot RightToeBase
      LeftUpLeg LeftLeg
      LeftLeg LeftFoot
      LeftFoot LeftToeBase
      Spine Spine_dum1 Spine_dum2 Spine_dum3
      Spine_dum1 RightShoulder
      Spine_dum2 LeftShoulder
      Spine_dum3 Head
      RightShoulder RightArm
      RightArm RightForeArm
      RightForeArm RightHand
      RightHand RightHand_dum1 RightHand_dum2
      RightHand_dum2 RightHandThumb1
      LeftShoulder LeftArm
      LeftArm LeftForeArm
      LeftForeArm LeftHand
      LeftHand LeftHand_dum1 LeftHand_dum2
      LeftHand_dum2 LeftHandThumb1
   end

# File created by Blade
# Date/Time:  Thu Jan 22 16:04:59 2015
# Frame Rate: 120.000 fps
#------------------------------------------------------
:FULLY-SPECIFIED
:DEGREES
191
root 2.171639 36.874914 5.946318 0.262906 -47.261488 -4.968803
RightUpLeg -1.180269 20.801935 -2.273689
RightLeg 3.116774 -0.000000 -0.000000
RightFoot -4.801114 3.504098 17.459087
RightToeBase 15.087166 -0.000000 -0.000000
LeftUpLeg 19.573096 26.094440 14.607509
LeftLeg 2.941119 -0.000000 -0.000000
LeftFoot -17.032633 21.334387 -30.198424
LeftToeBase 5.280114 -0.000000 -0.000000
Spine 7.887376 -40.625798 -6.379239
RightShoulder -15.233033 -24.277435 -19.104596
RightArm -0.862815 27.296473 40.816881
RightForeArm 8.625920 -0.000000 17.118673
RightHand 2.325028 -0.000000 -0.055700
RightHandThumb1 -24.326973 -0.000000 -32.862282
LeftShoulder -18.112854 32.661327 19.040809
LeftArm 50.437666 -39.921391 -52.376513
LeftForeArm 33.736926 -0.000000 3.460151
LeftHand -14.252092 0.000000 -2.718432
LeftHandThumb1 -26.253704 0.000000 33.147579
Head 16.665639 42.705448 19.911731
192
root 2.163759 36.872521 5.939275 0.401062 -47.773646 -5.108540
RightUpLeg -1.336881 21.027584 -2.205667
RightLeg 3.186842 -0.000000 -0.000000
RightFoot -4.663677 3.709789 17.489852
RightToeBase 15.088951 -0.000000 -0.000000
LeftUpLeg 19.682273 26.200182 14.646054
LeftLeg 2.949855 -0.000000 -0.000000
LeftFoot -17.164957 21.563385 -30.339892
LeftToeBase 5.229456 -0.000000 -0.000000
Spine 7.813968 -40.842114 -6.390048
RightShoulder -15.250599 -24.341224 -19.173597
RightArm -1.130215 27.358544 40.828525
RightForeArm 8.706786 -0.000000 17.092095
RightHand 2.283872 -0.000000 -0.299603
RightHandThumb1 -24.326973 -0.000000 -32.862282
LeftShoulder -17.877741 32.544099 19.128489
LeftArm 50.728353 -39.662744 -52.250391
LeftForeArm 33.769649 -0.000000 3.467372
LeftHand -14.038964 -0.000000 -2.549366
LeftHandThumb1 -26.253704 0.000000 33.147579
Head 16.974241 42.307881 20.105401
193
root 2.156488 36.868283 5.932833 0.554434 -48.324009 -5.284166
RightUpLeg -1.490343 21.277385 -2.118326
RightLeg 3.267611 -0.000000 -0.000000
RightFoot -4.538956 3.944835 17.585411
RightToeBase 15.191443 -0.000000 -0.000000
LeftUpLeg 19.833332 26.313171 14.707417
LeftLeg 2.928424 -0.000000 -0.000000
LeftFoot -17.335177 21.793833 -30.494975
LeftToeBase 5.183668 -0.000000 -0.000000
Spine 7.783361 -41.006220 -6.390788
RightShoulder -15.300688 -24.328761 -19.210955
RightArm -1.406461 27.251284 40.766050
RightForeArm 8.851135 0.000000 17.010220
RightHand 2.498404 -0.000000 -0.570720
RightHandThumb1 -24.326973 -0.000000 -32.862282
LeftShoulder -17.584617 32.304366 19.307424
LeftArm 51.004820 -39.493277 -52.306853
LeftForeArm 33.683830 -0.000000 3.572332
LeftHand -14.242271 -0.000000 -2.871429
LeftHandThumb1 -26.253704 0.000000 33.147579
Head 17.170469 41.936254 20.204079
194
root 2.150745 36.862974 5.926034 0.772105 -48.878408 -5.482737
RightUpLeg -1.708142 21.470840 -2.034227
RightLeg 3.374400 -0.000000 -0.000000
RightFoot -4.423385 4.216830 17.606199
RightToeBase 15.327181 -0.000000 -0.000000
LeftUpLeg 19.947072 26.454642 14.760373
LeftLeg 2.879973 -0.000000 -0.000000
LeftFoot -17.531287 22.014364 -30.687271
LeftToeBase 5.215772 -0.000000 -0.000000
Spine 7.659669 -41.191213 -6.292214
RightShoulder -15.311439 -24.340464 -19.302367
RightArm -1.678246 27.138083 40.731986
RightForeArm 9.050073 -0.000000 16.945526
RightHand 2.541062 -0.000000 -0.702122
RightHandThumb1 -24.326973 -0.000000 -32.862282
LeftShoulder -17.417839 32.136600 19.379407
LeftArm 51.376260 -39.220780 -52.328809
LeftForeArm 34.035208 -0.000000 3.542459
LeftHand -14.150747 -0.000000 -2.773319
LeftHandThumb1 -26.253704 0.000000 33.147579
Head 17.442594 41.652831 20.374362
195
root 2.139824 36.855450 5.914206 1.031145 -49.412986 -5.743745
RightUpLeg -1.890637 21.716133 -1.896663
RightLeg 3.434840 -0.000000 -0.000000
RightFoot -4.290701 4.422069 17.611227
RightToeBase 15.374491 -0.000000 -0.000000
LeftUpLeg 20.069466 26.556160 14.859027
LeftLeg 2.829691 -0.000000 -0.000000
LeftFoot -17.748935 22.222097 -30.836841
LeftToeBase 5.252361 -0.000000 -0.000000
Spine 7.544264 -41.375361 -6.181103
RightShoulder -15.289620 -24.345904 -19.395618
RightArm -1.985800 27.086937 40.692147
RightForeArm 9.118415 -0.000000 16.863833
RightHand 2.687414 -0.000000 -1.039558
RightHandThumb1 -24.326973 -0.000000 -32.862282
LeftShoulder -17.202373 32.009215 19.499289
LeftArm 51.713758 -38.937444 -52.318495
LeftForeArm 34.137749 -0.000000 3.622297
LeftHand -14.272807 -0.000000 -2.923989
LeftHandThumb1 -26.253704 0.000000 33.147579
Head 17.732599 41.353763 20.544872
196
root 2.133695 36.846214 5.904138 1.302561 -49.960010 -6.039417
RightUpLeg -2.071469 21.923475 -1.750914
RightLeg 3.510278 -0.000000 -0.000000
RightFoot -4.270120 4.670510 17.415982
RightToeBase 15.913161 -0.000000 -0.000000
LeftUpLeg 20.220008 26.635209 14.962859
LeftLeg 2.752197 -0.000000 -0.000000
LeftFoot -18.023704 22.457986 -31.002867
LeftToeBase 5.358786 -0.000000 -0.000000
Spine 7.461881 -41.562787 -6.048066
RightShoulder -15.258682 -24.386827 -19.509477
RightArm -2.237911 27.110776 40.707802
RightForeArm 9.184202 -0.000000 16.839119
RightHand 2.706576 -0.000000 -1.123579
RightHandThumb1 -24.326973 -0.000000 -32.862282
LeftShoulder -16.960865 31.864325 19.613239
LeftArm 52.046856 -38.702272 -52.346369
LeftForeArm 34.077524 -0.000000 3.674242
LeftHand -14.262889 -0.000000 -3.019900
LeftHandThumb1 -26.253704 0.000000 33.147579
Head 18.006917 41.066026 20.716370
197
root 2.124209 36.836399 5.889039 1.584885 -50.525599 -6.336862
RightUpLeg -2.254676 22.215715 -1.600322
RightLeg 3.572790 -0.000000 -0.000000
RightFoot -4.133699 4.879119 17.423638
RightToeBase 15.898092 -0.000000 -0.000000
LeftUpLeg 20.374007 26.769756 15.077305
LeftLeg 2.669973 -0.000000 -0.000000
LeftFoot -18.258635 22.708307 -31.144960
LeftToeBase 5.416846 -0.000000 -0.000000
Spine 7.391668 -41.715352 -5.946616
RightShoulder -15.246670 -24.380335 -19.582237
RightArm -2.538777 27.139770 40.699444
RightForeArm 9.140078 -0.000000 16.868885
RightHand 2.554509 0.000000 -1.296561
RightHandThumb1 -24.326973 -0.000000 -32.862282
LeftShoulder -16.774613 31.790437 19.750078
LeftArm 52.442695 -38.404265 -52.395318
LeftForeArm 34.300250 -0.000000 3.700960
LeftHand -14.006350 -0.000000 -3.104580
LeftHandThumb1 -26.253704 0.000000 33.147579
Head 18.277039 40.841955 20.889202
